
<svg width="208" height="96" viewBox="0 0 104 48" fill="none" xmlns="http://www.w3.org/2000/svg">
<g clip-path="url(#clip0_71_18)">
<path fill-rule="evenodd" clip-rule="evenodd" d="M52.8376 45.7042C52.8376 45.9129 52.9423 46.0173 53.1517 46.0173C53.3378 46.0173 53.4309 45.9129 53.4309 45.7042V42.2955H54.3732C54.5825 42.2955 54.6873 42.1912 54.6873 41.9825C54.6873 41.7738 54.5825 41.6694 54.3732 41.6694H53.4309V40.139C53.4309 39.9303 53.3378 39.826 53.1517 39.826C52.9423 39.826 52.8376 39.9303 52.8376 40.139V41.6694H52.5235C52.3141 41.6694 52.2094 41.7738 52.2094 41.9825C52.2094 42.1912 52.3141 42.2955 52.5235 42.2955H52.8376V45.7042ZM101.417 45.7042C101.417 45.9129 101.522 46.0173 101.732 46.0173C101.918 46.0173 102.011 45.9129 102.011 45.7042V42.2955H103.267V42.6086C103.267 42.8173 103.372 42.9216 103.581 42.9216C103.791 42.9216 103.895 42.8173 103.895 42.6086V41.9825C103.895 41.7738 103.791 41.6694 103.581 41.6694H101.732C101.522 41.6694 101.417 41.7738 101.417 41.9825V45.7042ZM97.5087 45.5651C97.8112 45.8666 98.1718 46.0173 98.5906 46.0173C99.0327 46.0173 99.4049 45.8666 99.7074 45.5651C100.01 45.2637 100.161 44.8926 100.161 44.4521V43.2347C100.161 42.7941 100.01 42.4231 99.7074 42.1216C99.4049 41.8202 99.0327 41.6694 98.5906 41.6694C98.1718 41.6694 97.8112 41.8202 97.5087 42.1216C97.2063 42.4231 97.055 42.7941 97.055 43.2347V44.4521C97.055 44.8926 97.2063 45.2637 97.5087 45.5651ZM99.2537 45.1129C99.0676 45.2984 98.8465 45.3912 98.5906 45.3912C98.3347 45.3912 98.1136 45.2984 97.9275 45.1129C97.7414 44.9506 97.6483 44.7303 97.6483 44.4521V43.2347C97.6483 42.9796 97.7414 42.7593 97.9275 42.5738C98.1136 42.3883 98.3347 42.2955 98.5906 42.2955C98.8465 42.2955 99.0676 42.3883 99.2537 42.5738C99.4398 42.7593 99.5329 42.9796 99.5329 43.2347V44.4521C99.5329 44.7071 99.4398 44.9274 99.2537 45.1129ZM93.9141 45.7042C93.9141 45.9129 94.0188 46.0173 94.2282 46.0173C94.4376 46.0173 94.5423 45.9129 94.5423 45.7042V42.2955H95.4846C95.694 42.2955 95.7987 42.1912 95.7987 41.9825C95.7987 41.7738 95.694 41.6694 95.4846 41.6694H94.5423V40.1042C94.5423 39.8955 94.4376 39.7912 94.2282 39.7912C94.0188 39.7912 93.9141 39.8955 93.9141 40.1042V41.6694H93.6349C93.4255 41.6694 93.3208 41.7738 93.3208 41.9825C93.3208 42.1912 93.4255 42.2955 93.6349 42.2955H93.9141V45.7042ZM91.7503 46.0173C91.9597 46.0173 92.0644 45.9129 92.0644 45.7042V42.8868C92.0644 42.539 91.9365 42.2492 91.6805 42.0173C91.4479 41.7854 91.1571 41.6694 90.8081 41.6694H89.5517C89.3656 41.6694 89.2725 41.7738 89.2725 41.9825C89.2725 42.1912 89.3656 42.2955 89.5517 42.2955H90.8081C90.9942 42.2955 91.1454 42.3535 91.2617 42.4694C91.3781 42.5854 91.4362 42.7245 91.4362 42.8868V43.5129H90.1799C89.6913 43.5129 89.3306 43.7216 89.098 44.139C89.0049 44.3245 88.9584 44.5332 88.9584 44.7651C88.9584 45.1129 89.0747 45.4028 89.3074 45.6347C89.54 45.8897 89.8309 46.0173 90.1799 46.0173H91.7503ZM91.4362 45.3912H90.2148C90.0286 45.3912 89.8774 45.3332 89.7611 45.2173C89.6447 45.0781 89.5866 44.9274 89.5866 44.7651C89.5866 44.5796 89.6447 44.4289 89.7611 44.3129C89.8774 44.197 90.0286 44.139 90.2148 44.139H91.4362V45.3912ZM85.2242 45.7042C85.2242 45.9129 85.3289 46.0173 85.5383 46.0173C85.7477 46.0173 85.8524 45.9129 85.8524 45.7042V42.2955H87.1087V42.5738C87.1087 42.7825 87.2134 42.8868 87.4228 42.8868C87.609 42.8868 87.702 42.7825 87.702 42.5738V41.9825C87.702 41.7738 87.609 41.6694 87.4228 41.6694H85.5383C85.3289 41.6694 85.2242 41.7738 85.2242 41.9825V45.7042ZM83.9678 44.139V43.1999C83.9678 42.7593 83.8166 42.3999 83.5141 42.1216C83.2349 41.8202 82.8743 41.6694 82.4322 41.6694C81.9902 41.6694 81.6179 41.8202 81.3154 42.1216C81.013 42.4231 80.8618 42.7825 80.8618 43.1999V44.7651C80.8618 45.1129 80.9897 45.4028 81.2456 45.6347C81.4783 45.8897 81.7691 46.0173 82.1181 46.0173H83.6886C83.8747 46.0173 83.9678 45.9129 83.9678 45.7042C83.9678 45.4955 83.8747 45.3912 83.6886 45.3912H82.1181C81.9553 45.3912 81.804 45.3332 81.6644 45.2173C81.5481 45.0781 81.4899 44.9274 81.4899 44.7651V44.139H83.9678ZM83.0604 42.539C83.2465 42.7245 83.3396 42.9448 83.3396 43.1999V43.5129H81.4899V43.1999C81.4899 42.9448 81.5714 42.7245 81.7342 42.539C81.9204 42.3535 82.1414 42.2723 82.3973 42.2955C82.6532 42.2723 82.8743 42.3535 83.0604 42.539ZM76.4993 47.5477C76.4993 47.7564 76.604 47.8607 76.8134 47.8607C76.9996 47.8607 77.0926 47.7564 77.0926 47.5477V46.0173H78.349C78.698 46.0173 79.0005 45.8897 79.2564 45.6347C79.489 45.4028 79.6054 45.1129 79.6054 44.7651V42.8868C79.6054 42.539 79.489 42.2492 79.2564 42.0173C79.0005 41.7854 78.698 41.6694 78.349 41.6694H76.8134C76.604 41.6694 76.4993 41.7738 76.4993 41.9825V47.5477ZM78.349 42.2608C78.5351 42.2608 78.6864 42.3187 78.8027 42.4347C78.919 42.5506 78.9772 42.7013 78.9772 42.8868V44.7303C78.9772 44.9158 78.919 45.0666 78.8027 45.1825C78.6864 45.2984 78.5351 45.3564 78.349 45.3564H77.0926V42.2608H78.349ZM72.5906 45.5303C72.8931 45.8318 73.2537 45.9825 73.6725 45.9825C74.1145 45.9825 74.4868 45.8318 74.7893 45.5303C75.0917 45.2289 75.243 44.8694 75.243 44.4521V43.1999C75.243 42.7593 75.0917 42.3883 74.7893 42.0868C74.4868 41.7854 74.1145 41.6347 73.6725 41.6347C73.2537 41.6347 72.8931 41.7854 72.5906 42.0868C72.2881 42.3883 72.1369 42.7593 72.1369 43.1999V44.4521C72.1369 44.8694 72.2881 45.2289 72.5906 45.5303ZM74.3705 45.1129C74.1843 45.2752 73.9517 45.3564 73.6725 45.3564C73.4166 45.3564 73.1955 45.2752 73.0094 45.1129C72.8465 44.9274 72.7535 44.7071 72.7302 44.4521V43.1999C72.7302 42.9448 72.8233 42.7245 73.0094 42.539C73.1955 42.3535 73.4166 42.2608 73.6725 42.2608C73.9517 42.2608 74.1843 42.3535 74.3705 42.539C74.5333 42.7245 74.6148 42.9448 74.6148 43.1999V44.4521C74.6148 44.7071 74.5333 44.9274 74.3705 45.1129ZM64.6685 45.6694C64.6685 45.8781 64.7732 45.9825 64.9826 45.9825C65.192 45.9825 65.2966 45.8781 65.2966 45.6694V42.2608H66.5181V42.5738C66.5181 42.7825 66.6228 42.8868 66.8322 42.8868C67.0416 42.8868 67.1463 42.7825 67.1463 42.5738V41.9477C67.1463 41.739 67.0416 41.6347 66.8322 41.6347H64.9826C64.7732 41.6347 64.6685 41.739 64.6685 41.9477V45.6694ZM63.098 41.6347C62.8886 41.6347 62.7839 41.739 62.7839 41.9477V45.3564H61.5275C61.3647 45.3564 61.2251 45.2984 61.1087 45.1825C60.9691 45.0666 60.8993 44.9158 60.8993 44.7303V41.9477C60.8993 41.739 60.8063 41.6347 60.6201 41.6347C60.4107 41.6347 60.306 41.739 60.306 41.9477V44.7303C60.306 45.0781 60.4224 45.3796 60.655 45.6347C60.8877 45.8666 61.1785 45.9825 61.5275 45.9825H63.098C63.3074 45.9825 63.4121 45.8781 63.4121 45.6694V41.9477C63.4121 41.739 63.3074 41.6347 63.098 41.6347ZM56.3973 45.5303C56.6998 45.8318 57.0604 45.9825 57.4792 45.9825C57.9213 45.9825 58.2935 45.8318 58.596 45.5303C58.8984 45.2289 59.0497 44.8579 59.0497 44.4173V43.1999C59.0497 42.7593 58.8984 42.3883 58.596 42.0868C58.2935 41.7854 57.9213 41.6347 57.4792 41.6347C57.0604 41.6347 56.6998 41.7854 56.3973 42.0868C56.0949 42.3883 55.9436 42.7593 55.9436 43.1999V44.4173C55.9436 44.8579 56.0949 45.2289 56.3973 45.5303ZM58.1772 45.0781C57.9911 45.2636 57.7584 45.3564 57.4792 45.3564C57.2233 45.3564 57.0022 45.2752 56.8161 45.1129C56.6532 44.9274 56.5718 44.7071 56.5718 44.4521V43.1999C56.5718 42.9448 56.6532 42.7245 56.8161 42.539C57.0022 42.3535 57.2233 42.2608 57.4792 42.2608C57.7584 42.2608 57.9911 42.3535 58.1772 42.539C58.3633 42.7245 58.4564 42.9448 58.4564 43.1999V44.4521C58.4564 44.7071 58.3633 44.9158 58.1772 45.0781ZM49.4524 0.034668C48.638 0.034668 48.2309 0.440465 48.2309 1.25206V13.5651C48.2309 14.3535 48.638 14.7477 49.4524 14.7477H56.0134C56.8743 14.7477 57.6188 14.6434 58.247 14.4347C58.8752 14.2492 59.387 13.9709 59.7825 13.5999C60.1781 13.2521 60.4689 12.8347 60.655 12.3477C60.8412 11.8376 60.9342 11.2926 60.9342 10.7129C60.9342 9.85495 60.7481 9.14771 60.3758 8.59119C60.0036 8.05786 59.4685 7.64047 58.7705 7.33902C59.4685 7.06076 59.9919 6.66655 60.3409 6.15641C60.7132 5.62308 60.8993 4.92742 60.8993 4.06945C60.8993 3.48974 60.7946 2.94481 60.5852 2.43467C60.3991 1.94771 60.1083 1.53032 59.7128 1.18249C59.3172 0.811475 58.8054 0.533217 58.1772 0.347709C57.5723 0.139014 56.8277 0.034668 55.9436 0.034668H49.4524ZM92.6577 0.034668V2.60858H96.9503V14.7477H99.5678V2.60858H103.86V0.034668H92.6577ZM83.0255 0.034668C82.2112 0.034668 81.5132 0.139014 80.9315 0.347709C80.3499 0.556405 79.8729 0.857856 79.5007 1.25206C79.1284 1.62307 78.8609 2.06365 78.698 2.57379C78.5119 3.10713 78.4188 3.67524 78.4188 4.27814C78.4188 4.78828 78.4886 5.29844 78.6282 5.80858C78.7678 6.31873 79.0237 6.7709 79.396 7.1651C79.745 7.58249 80.2336 7.90713 80.8618 8.13901C81.4899 8.39408 82.3043 8.52162 83.3047 8.52162H86.7248C87.1669 8.52162 87.5392 8.568 87.8416 8.66075C88.1441 8.77669 88.3884 8.91583 88.5745 9.07815C88.7374 9.24047 88.8537 9.43756 88.9235 9.66944C88.9933 9.90133 89.0282 10.1332 89.0282 10.3651C89.0282 10.8984 88.8653 11.339 88.5396 11.6868C88.2139 12.0115 87.702 12.1738 87.004 12.1738H78.698V14.7477H86.9342C87.7718 14.7477 88.4814 14.6434 89.0631 14.4347C89.668 14.2028 90.1566 13.9013 90.5289 13.5303C90.9011 13.1361 91.1803 12.6839 91.3664 12.1738C91.5293 11.6405 91.6107 11.0608 91.6107 10.4347C91.6107 9.92452 91.541 9.40278 91.4014 8.86945C91.2618 8.33611 91.0058 7.87235 90.6336 7.47814C90.2613 7.06075 89.7611 6.72452 89.1329 6.46945C88.4814 6.21438 87.6555 6.08684 86.655 6.08684H83.2C82.7579 6.08684 82.3973 6.04047 82.1181 5.94771C81.8389 5.85496 81.6179 5.72742 81.455 5.5651C81.2922 5.40278 81.1758 5.21727 81.106 5.00858C81.0362 4.79988 81.0013 4.57959 81.0013 4.34771C81.0013 3.83756 81.1642 3.42017 81.4899 3.09553C81.7924 2.7709 82.281 2.60858 82.9557 2.60858H90.494V0.034668H83.0255ZM68.3678 0.034668C67.4837 0.034668 66.7392 0.139014 66.1342 0.347709C65.506 0.533217 64.9942 0.811475 64.5987 1.18249C64.2031 1.53032 63.9007 1.94771 63.6913 2.43467C63.5051 2.94481 63.4121 3.48974 63.4121 4.06945C63.4121 5.69264 64.1101 6.79409 65.506 7.3738C64.8081 7.65206 64.2846 8.06944 63.9356 8.62597C63.5633 9.20568 63.3772 9.91292 63.3772 10.7477C63.3772 11.3042 63.4702 11.8376 63.6564 12.3477C63.8425 12.8347 64.1333 13.2521 64.5289 13.5999C64.9244 13.9709 65.4362 14.2492 66.0644 14.4347C66.6693 14.6434 67.4139 14.7477 68.298 14.7477H75.7664V12.1738H68.298C67.5302 12.1738 66.9718 12.0115 66.6228 11.6868C66.2506 11.3622 66.0644 10.91 66.0644 10.3303C66.0644 9.14771 66.8206 8.55641 68.3329 8.55641H75.6617V6.22597H68.4027C66.8904 6.22597 66.1342 5.63466 66.1342 4.45205C66.1342 3.89553 66.3087 3.45496 66.6577 3.13032C67.0067 2.78249 67.5767 2.60858 68.3678 2.60858H75.7664V0.034668H68.3678ZM50.7785 8.38249H56.0832C57.5955 8.38249 58.3517 9.02017 58.3517 10.2955C58.3517 10.8984 58.1772 11.3622 57.8282 11.6868C57.4559 12.0347 56.8743 12.2086 56.0832 12.2086H51.0577C50.8716 12.2086 50.7785 12.1274 50.7785 11.9651V8.38249ZM50.7785 2.81728C50.7785 2.65496 50.8716 2.57379 51.0577 2.57379H56.0483C56.8394 2.57379 57.4094 2.74771 57.7584 3.09553C58.1074 3.44336 58.2819 3.90713 58.2819 4.48684C58.2819 5.66945 57.5257 6.26075 56.0134 6.26075H50.7785V2.81728Z" fill="#6F7176"/>
<path fill-rule="evenodd" clip-rule="evenodd" d="M52.8376 45.7042C52.8376 45.9129 52.9423 46.0173 53.1517 46.0173C53.3378 46.0173 53.4309 45.9129 53.4309 45.7042V42.2955H54.3732C54.5825 42.2955 54.6873 42.1912 54.6873 41.9825C54.6873 41.7738 54.5825 41.6694 54.3732 41.6694H53.4309V40.139C53.4309 39.9303 53.3378 39.826 53.1517 39.826C52.9423 39.826 52.8376 39.9303 52.8376 40.139V41.6694H52.5235C52.3141 41.6694 52.2094 41.7738 52.2094 41.9825C52.2094 42.1912 52.3141 42.2955 52.5235 42.2955H52.8376V45.7042ZM101.417 45.7042C101.417 45.9129 101.522 46.0173 101.732 46.0173C101.918 46.0173 102.011 45.9129 102.011 45.7042V42.2955H103.267V42.6086C103.267 42.8173 103.372 42.9216 103.581 42.9216C103.791 42.9216 103.895 42.8173 103.895 42.6086V41.9825C103.895 41.7738 103.791 41.6694 103.581 41.6694H101.732C101.522 41.6694 101.417 41.7738 101.417 41.9825V45.7042ZM97.5087 45.5651C97.8112 45.8666 98.1718 46.0173 98.5906 46.0173C99.0327 46.0173 99.4049 45.8666 99.7074 45.5651C100.01 45.2637 100.161 44.8926 100.161 44.4521V43.2347C100.161 42.7941 100.01 42.4231 99.7074 42.1216C99.4049 41.8202 99.0327 41.6694 98.5906 41.6694C98.1718 41.6694 97.8112 41.8202 97.5087 42.1216C97.2063 42.4231 97.055 42.7941 97.055 43.2347V44.4521C97.055 44.8926 97.2063 45.2637 97.5087 45.5651ZM99.2537 45.1129C99.0676 45.2984 98.8465 45.3912 98.5906 45.3912C98.3347 45.3912 98.1136 45.2984 97.9275 45.1129C97.7414 44.9506 97.6483 44.7303 97.6483 44.4521V43.2347C97.6483 42.9796 97.7414 42.7593 97.9275 42.5738C98.1136 42.3883 98.3347 42.2955 98.5906 42.2955C98.8465 42.2955 99.0676 42.3883 99.2537 42.5738C99.4398 42.7593 99.5329 42.9796 99.5329 43.2347V44.4521C99.5329 44.7071 99.4398 44.9274 99.2537 45.1129ZM93.9141 45.7042C93.9141 45.9129 94.0188 46.0173 94.2282 46.0173C94.4376 46.0173 94.5423 45.9129 94.5423 45.7042V42.2955H95.4846C95.694 42.2955 95.7987 42.1912 95.7987 41.9825C95.7987 41.7738 95.694 41.6694 95.4846 41.6694H94.5423V40.1042C94.5423 39.8955 94.4376 39.7912 94.2282 39.7912C94.0188 39.7912 93.9141 39.8955 93.9141 40.1042V41.6694H93.6349C93.4255 41.6694 93.3208 41.7738 93.3208 41.9825C93.3208 42.1912 93.4255 42.2955 93.6349 42.2955H93.9141V45.7042ZM91.7503 46.0173C91.9597 46.0173 92.0644 45.9129 92.0644 45.7042V42.8868C92.0644 42.539 91.9365 42.2492 91.6805 42.0173C91.4479 41.7854 91.1571 41.6694 90.8081 41.6694H89.5517C89.3656 41.6694 89.2725 41.7738 89.2725 41.9825C89.2725 42.1912 89.3656 42.2955 89.5517 42.2955H90.8081C90.9942 42.2955 91.1454 42.3535 91.2617 42.4694C91.3781 42.5854 91.4362 42.7245 91.4362 42.8868V43.5129H90.1799C89.6913 43.5129 89.3306 43.7216 89.098 44.139C89.0049 44.3245 88.9584 44.5332 88.9584 44.7651C88.9584 45.1129 89.0747 45.4028 89.3074 45.6347C89.54 45.8897 89.8309 46.0173 90.1799 46.0173H91.7503ZM91.4362 45.3912H90.2148C90.0286 45.3912 89.8774 45.3332 89.7611 45.2173C89.6447 45.0781 89.5866 44.9274 89.5866 44.7651C89.5866 44.5796 89.6447 44.4289 89.7611 44.3129C89.8774 44.197 90.0286 44.139 90.2148 44.139H91.4362V45.3912ZM85.2242 45.7042C85.2242 45.9129 85.3289 46.0173 85.5383 46.0173C85.7477 46.0173 85.8524 45.9129 85.8524 45.7042V42.2955H87.1087V42.5738C87.1087 42.7825 87.2134 42.8868 87.4228 42.8868C87.609 42.8868 87.702 42.7825 87.702 42.5738V41.9825C87.702 41.7738 87.609 41.6694 87.4228 41.6694H85.5383C85.3289 41.6694 85.2242 41.7738 85.2242 41.9825V45.7042ZM83.9678 44.139V43.1999C83.9678 42.7593 83.8166 42.3999 83.5141 42.1216C83.2349 41.8202 82.8743 41.6694 82.4322 41.6694C81.9902 41.6694 81.6179 41.8202 81.3154 42.1216C81.013 42.4231 80.8618 42.7825 80.8618 43.1999V44.7651C80.8618 45.1129 80.9897 45.4028 81.2456 45.6347C81.4783 45.8897 81.7691 46.0173 82.1181 46.0173H83.6886C83.8747 46.0173 83.9678 45.9129 83.9678 45.7042C83.9678 45.4955 83.8747 45.3912 83.6886 45.3912H82.1181C81.9553 45.3912 81.804 45.3332 81.6644 45.2173C81.5481 45.0781 81.4899 44.9274 81.4899 44.7651V44.139H83.9678ZM83.0604 42.539C83.2465 42.7245 83.3396 42.9448 83.3396 43.1999V43.5129H81.4899V43.1999C81.4899 42.9448 81.5714 42.7245 81.7342 42.539C81.9204 42.3535 82.1414 42.2723 82.3973 42.2955C82.6532 42.2723 82.8743 42.3535 83.0604 42.539ZM76.4993 47.5477C76.4993 47.7564 76.604 47.8607 76.8134 47.8607C76.9996 47.8607 77.0926 47.7564 77.0926 47.5477V46.0173H78.349C78.698 46.0173 79.0005 45.8897 79.2564 45.6347C79.489 45.4028 79.6054 45.1129 79.6054 44.7651V42.8868C79.6054 42.539 79.489 42.2492 79.2564 42.0173C79.0005 41.7854 78.698 41.6694 78.349 41.6694H76.8134C76.604 41.6694 76.4993 41.7738 76.4993 41.9825V47.5477ZM78.349 42.2608C78.5351 42.2608 78.6864 42.3187 78.8027 42.4347C78.919 42.5506 78.9772 42.7013 78.9772 42.8868V44.7303C78.9772 44.9158 78.919 45.0666 78.8027 45.1825C78.6864 45.2984 78.5351 45.3564 78.349 45.3564H77.0926V42.2608H78.349ZM72.5906 45.5303C72.8931 45.8318 73.2537 45.9825 73.6725 45.9825C74.1145 45.9825 74.4868 45.8318 74.7893 45.5303C75.0917 45.2289 75.243 44.8694 75.243 44.4521V43.1999C75.243 42.7593 75.0917 42.3883 74.7893 42.0868C74.4868 41.7854 74.1145 41.6347 73.6725 41.6347C73.2537 41.6347 72.8931 41.7854 72.5906 42.0868C72.2881 42.3883 72.1369 42.7593 72.1369 43.1999V44.4521C72.1369 44.8694 72.2881 45.2289 72.5906 45.5303ZM74.3705 45.1129C74.1843 45.2752 73.9517 45.3564 73.6725 45.3564C73.4166 45.3564 73.1955 45.2752 73.0094 45.1129C72.8465 44.9274 72.7535 44.7071 72.7302 44.4521V43.1999C72.7302 42.9448 72.8233 42.7245 73.0094 42.539C73.1955 42.3535 73.4166 42.2608 73.6725 42.2608C73.9517 42.2608 74.1843 42.3535 74.3705 42.539C74.5333 42.7245 74.6148 42.9448 74.6148 43.1999V44.4521C74.6148 44.7071 74.5333 44.9274 74.3705 45.1129ZM64.6685 45.6694C64.6685 45.8781 64.7732 45.9825 64.9826 45.9825C65.192 45.9825 65.2966 45.8781 65.2966 45.6694V42.2608H66.5181V42.5738C66.5181 42.7825 66.6228 42.8868 66.8322 42.8868C67.0416 42.8868 67.1463 42.7825 67.1463 42.5738V41.9477C67.1463 41.739 67.0416 41.6347 66.8322 41.6347H64.9826C64.7732 41.6347 64.6685 41.739 64.6685 41.9477V45.6694ZM63.098 41.6347C62.8886 41.6347 62.7839 41.739 62.7839 41.9477V45.3564H61.5275C61.3647 45.3564 61.2251 45.2984 61.1087 45.1825C60.9691 45.0666 60.8993 44.9158 60.8993 44.7303V41.9477C60.8993 41.739 60.8063 41.6347 60.6201 41.6347C60.4107 41.6347 60.306 41.739 60.306 41.9477V44.7303C60.306 45.0781 60.4224 45.3796 60.655 45.6347C60.8877 45.8666 61.1785 45.9825 61.5275 45.9825H63.098C63.3074 45.9825 63.4121 45.8781 63.4121 45.6694V41.9477C63.4121 41.739 63.3074 41.6347 63.098 41.6347ZM56.3973 45.5303C56.6998 45.8318 57.0604 45.9825 57.4792 45.9825C57.9213 45.9825 58.2935 45.8318 58.596 45.5303C58.8984 45.2289 59.0497 44.8579 59.0497 44.4173V43.1999C59.0497 42.7593 58.8984 42.3883 58.596 42.0868C58.2935 41.7854 57.9213 41.6347 57.4792 41.6347C57.0604 41.6347 56.6998 41.7854 56.3973 42.0868C56.0949 42.3883 55.9436 42.7593 55.9436 43.1999V44.4173C55.9436 44.8579 56.0949 45.2289 56.3973 45.5303ZM58.1772 45.0781C57.9911 45.2636 57.7584 45.3564 57.4792 45.3564C57.2233 45.3564 57.0022 45.2752 56.8161 45.1129C56.6532 44.9274 56.5718 44.7071 56.5718 44.4521V43.1999C56.5718 42.9448 56.6532 42.7245 56.8161 42.539C57.0022 42.3535 57.2233 42.2608 57.4792 42.2608C57.7584 42.2608 57.9911 42.3535 58.1772 42.539C58.3633 42.7245 58.4564 42.9448 58.4564 43.1999V44.4521C58.4564 44.7071 58.3633 44.9158 58.1772 45.0781ZM49.4524 0.034668C48.638 0.034668 48.2309 0.440465 48.2309 1.25206V13.5651C48.2309 14.3535 48.638 14.7477 49.4524 14.7477H56.0134C56.8743 14.7477 57.6188 14.6434 58.247 14.4347C58.8752 14.2492 59.387 13.9709 59.7825 13.5999C60.1781 13.2521 60.4689 12.8347 60.655 12.3477C60.8412 11.8376 60.9342 11.2926 60.9342 10.7129C60.9342 9.85495 60.7481 9.14771 60.3758 8.59119C60.0036 8.05786 59.4685 7.64047 58.7705 7.33902C59.4685 7.06076 59.9919 6.66655 60.3409 6.15641C60.7132 5.62308 60.8993 4.92742 60.8993 4.06945C60.8993 3.48974 60.7946 2.94481 60.5852 2.43467C60.3991 1.94771 60.1083 1.53032 59.7128 1.18249C59.3172 0.811475 58.8054 0.533217 58.1772 0.347709C57.5723 0.139014 56.8277 0.034668 55.9436 0.034668H49.4524ZM92.6577 0.034668V2.60858H96.9503V14.7477H99.5678V2.60858H103.86V0.034668H92.6577ZM83.0255 0.034668C82.2112 0.034668 81.5132 0.139014 80.9315 0.347709C80.3499 0.556405 79.8729 0.857856 79.5007 1.25206C79.1284 1.62307 78.8609 2.06365 78.698 2.57379C78.5119 3.10713 78.4188 3.67524 78.4188 4.27814C78.4188 4.78828 78.4886 5.29844 78.6282 5.80858C78.7678 6.31873 79.0237 6.7709 79.396 7.1651C79.745 7.58249 80.2336 7.90713 80.8618 8.13901C81.4899 8.39408 82.3043 8.52162 83.3047 8.52162H86.7248C87.1669 8.52162 87.5392 8.568 87.8416 8.66075C88.1441 8.77669 88.3884 8.91583 88.5745 9.07815C88.7374 9.24047 88.8537 9.43756 88.9235 9.66944C88.9933 9.90133 89.0282 10.1332 89.0282 10.3651C89.0282 10.8984 88.8653 11.339 88.5396 11.6868C88.2139 12.0115 87.702 12.1738 87.004 12.1738H78.698V14.7477H86.9342C87.7718 14.7477 88.4814 14.6434 89.0631 14.4347C89.668 14.2028 90.1566 13.9013 90.5289 13.5303C90.9011 13.1361 91.1803 12.6839 91.3664 12.1738C91.5293 11.6405 91.6107 11.0608 91.6107 10.4347C91.6107 9.92452 91.541 9.40278 91.4014 8.86945C91.2618 8.33611 91.0058 7.87235 90.6336 7.47814C90.2613 7.06075 89.7611 6.72452 89.1329 6.46945C88.4814 6.21438 87.6555 6.08684 86.655 6.08684H83.2C82.7579 6.08684 82.3973 6.04047 82.1181 5.94771C81.8389 5.85496 81.6179 5.72742 81.455 5.5651C81.2922 5.40278 81.1758 5.21727 81.106 5.00858C81.0362 4.79988 81.0013 4.57959 81.0013 4.34771C81.0013 3.83756 81.1642 3.42017 81.4899 3.09553C81.7924 2.7709 82.281 2.60858 82.9557 2.60858H90.494V0.034668H83.0255ZM68.3678 0.034668C67.4837 0.034668 66.7392 0.139014 66.1342 0.347709C65.506 0.533217 64.9942 0.811475 64.5987 1.18249C64.2031 1.53032 63.9007 1.94771 63.6913 2.43467C63.5051 2.94481 63.4121 3.48974 63.4121 4.06945C63.4121 5.69264 64.1101 6.79409 65.506 7.3738C64.8081 7.65206 64.2846 8.06944 63.9356 8.62597C63.5633 9.20568 63.3772 9.91292 63.3772 10.7477C63.3772 11.3042 63.4702 11.8376 63.6564 12.3477C63.8425 12.8347 64.1333 13.2521 64.5289 13.5999C64.9244 13.9709 65.4362 14.2492 66.0644 14.4347C66.6693 14.6434 67.4139 14.7477 68.298 14.7477H75.7664V12.1738H68.298C67.5302 12.1738 66.9718 12.0115 66.6228 11.6868C66.2506 11.3622 66.0644 10.91 66.0644 10.3303C66.0644 9.14771 66.8206 8.55641 68.3329 8.55641H75.6617V6.22597H68.4027C66.8904 6.22597 66.1342 5.63466 66.1342 4.45205C66.1342 3.89553 66.3087 3.45496 66.6577 3.13032C67.0067 2.78249 67.5767 2.60858 68.3678 2.60858H75.7664V0.034668H68.3678ZM50.7785 8.38249H56.0832C57.5955 8.38249 58.3517 9.02017 58.3517 10.2955C58.3517 10.8984 58.1772 11.3622 57.8282 11.6868C57.4559 12.0347 56.8743 12.2086 56.0832 12.2086H51.0577C50.8716 12.2086 50.7785 12.1274 50.7785 11.9651V8.38249ZM50.7785 2.81728C50.7785 2.65496 50.8716 2.57379 51.0577 2.57379H56.0483C56.8394 2.57379 57.4094 2.74771 57.7584 3.09553C58.1074 3.44336 58.2819 3.90713 58.2819 4.48684C58.2819 5.66945 57.5257 6.26075 56.0134 6.26075H50.7785V2.81728Z" fill="#6F7176"/>
<path fill-rule="evenodd" clip-rule="evenodd" d="M53.8846 27.8259L55.3503 31.7215C55.4434 31.9302 55.5481 32.081 55.6644 32.1737C55.804 32.2897 55.9785 32.3476 56.1879 32.3476C56.3973 32.3476 56.5718 32.2665 56.7114 32.1041C56.851 31.965 56.9325 31.7679 56.9557 31.5128V22.8172C56.9557 21.8665 57.2233 21.0897 57.7584 20.4868C58.2935 19.907 59.1078 19.6172 60.2014 19.6172C61.1785 19.6172 61.9347 19.8607 62.4698 20.3476C63.0049 20.8346 63.4121 21.4955 63.6913 22.3302L67.2859 31.7215C67.4255 32.1389 67.6931 32.3476 68.0886 32.3476C68.298 32.3476 68.4725 32.2665 68.6121 32.1041C68.7517 31.965 68.8215 31.7679 68.8215 31.5128V19.8955H71.4389V31.6172C71.4389 32.5911 71.1597 33.3795 70.6013 33.9824C70.0662 34.5621 69.2519 34.852 68.1584 34.852C67.1579 34.852 66.4018 34.6085 65.8899 34.1215C65.3781 33.6346 64.9709 32.9737 64.6685 32.1389L61.1087 22.7476C61.0157 22.5621 60.8993 22.4114 60.7597 22.2955C60.6434 22.1795 60.4805 22.1215 60.2712 22.1215C60.0385 22.1215 59.8524 22.1911 59.7128 22.3302C59.5732 22.4926 59.5034 22.7012 59.5034 22.9563V31.6172C59.5034 32.5911 59.2358 33.3795 58.7007 33.9824C58.1423 34.5621 57.3163 34.852 56.2228 34.852C55.2456 34.852 54.5011 34.6085 53.9893 34.1215C53.4542 33.6346 53.047 32.9737 52.7678 32.1389L52.5235 31.5128L53.8846 27.8259ZM76.4993 34.5042H73.6725L78.8027 21.5302C79.0819 20.8346 79.4774 20.336 79.9893 20.0346C80.4779 19.7563 81.1177 19.6172 81.9087 19.6172C82.6765 19.6172 83.3047 19.7563 83.7933 20.0346C84.3052 20.336 84.689 20.8346 84.945 21.5302L89.9007 34.5042H87.0389L85.643 30.7824H77.9651L76.4993 34.5042ZM84.6658 28.2085L82.6067 22.7476C82.4671 22.423 82.2228 22.2607 81.8738 22.2607C81.5248 22.2607 81.2805 22.423 81.1409 22.7476L78.9772 28.2085H84.6658ZM92.5181 19.8955L96.6711 26.1911L100.824 19.8955H103.895L97.9624 28.2433V34.6085H95.345V28.2433L89.4121 19.8955H92.5181Z" fill="#6F7176"/>
<path fill-rule="evenodd" clip-rule="evenodd" d="M50.953 19.8955L53.1517 25.7738L51.7557 29.4607L48.196 19.8955H50.953Z" fill="#F27E00"/>
<path fill-rule="evenodd" clip-rule="evenodd" d="M15.0765 36.9738L2.37315 38.1912C2.09396 38.226 1.67517 38.2955 1.39598 38.226C0.593291 38.0868 0.0698036 37.2521 0.209401 36.3129C0.314099 35.6868 0.66309 35.339 1.04698 34.9216L29.6644 0.973787C30.2228 0.312918 31.0255 -0.0696824 31.8631 0.069448C32.7007 0.208578 33.3289 0.834665 33.643 1.63467L37.4819 11.5129C37.098 12.0347 36.4349 11.8955 35.4577 11.8608C33.7826 11.7912 31.8631 11.6521 30.3624 11.8608C26.8725 12.3129 27.8846 14.3651 30.2577 15.7912C32.8403 17.3216 35.3181 19.026 37.7262 20.8694C40.3785 22.8868 39.0873 23.339 36.1557 23.1303C30.851 22.7477 24.1503 22.1216 19.6832 25.9129C16.2631 28.8347 14.6228 32.8347 15.0765 36.9738ZM38.0403 12.9042L40.553 19.3738C38.5289 18.0173 36.1557 16.7651 33.9222 15.7912C31.9678 14.9216 28.3034 12.5564 33.643 13.1129C35.004 13.2868 36.9584 13.4607 38.0403 12.9042ZM44.1477 28.6607L49.7315 42.9912C49.9409 43.5129 50.1503 43.9303 50.0456 44.5564C49.906 45.4955 49.1383 46.1216 48.3356 46.0173C48.0215 45.9477 47.6725 45.7738 47.3933 45.6347L35.5973 40.3129C33.7128 39.339 32.5262 36.7999 33.1195 34.4694C33.643 32.5216 35.2134 30.6086 39.1222 30.1912C41.3906 29.8086 43.0309 29.2868 44.1477 28.6607Z" fill="#F27E00"/>
<path fill-rule="evenodd" clip-rule="evenodd" d="M25.651 38.226C25.5114 37.3912 25.4067 36.5912 25.3369 35.7912C25.3136 35.5825 25.302 35.3738 25.302 35.1651L24.3597 35.3043C24.3597 35.4434 24.3714 35.5825 24.3946 35.7216C24.4644 36.5101 24.5575 37.2869 24.6738 38.0521L25.651 38.226ZM25.2322 34.0521C25.2322 33.0086 25.3369 31.9651 25.7208 31.0608L24.8832 30.6086C24.4295 31.7216 24.2899 32.939 24.2899 34.1564L25.2322 34.0521ZM26.2443 30.1912C26.7329 29.4956 27.396 29.0086 28.094 28.6608C28.2103 28.5912 28.3266 28.5332 28.443 28.4869L28.0591 27.4434C27.047 27.9303 26.1396 28.5912 25.4765 29.4956L26.2443 30.1912ZM29.3503 28.1738C30.2577 27.8608 31.2 27.6869 32.0725 27.5825L32.0376 26.4695C31.0953 26.5738 30.0832 26.7477 29.106 27.0608L29.3503 28.1738ZM33.0497 27.4782C34.0268 27.3854 35.004 27.2811 35.9812 27.1651L35.9114 26.1216C34.9342 26.226 33.9919 26.2956 33.0497 26.3651V27.4782ZM36.9584 27.026C37.9007 26.8869 38.8779 26.6782 39.8201 26.4347L39.7154 25.5303C38.7731 25.7738 37.8309 25.9129 36.8886 26.0173L36.9584 27.026ZM40.7973 26.1216C41.6698 25.7738 42.9611 25.1825 43.2752 24.1042V24.0695L42.5423 23.9651C42.298 24.626 41.3906 25.0434 40.6926 25.2869L40.7973 26.1216ZM43.1356 22.7129C42.996 22.3303 42.7866 22.0173 42.5423 21.739C42.1235 21.2173 41.6 20.7303 41.0416 20.2434C40.9718 20.4521 40.8322 20.6608 40.7275 20.8695C41.1812 21.2521 41.6 21.6695 41.9839 22.1564C42.1584 22.3999 42.4027 22.7477 42.5074 23.0956L43.1356 22.7129ZM40.2738 19.6869C39.855 19.339 39.4013 19.026 38.9826 18.7477C38.587 18.5158 38.2031 18.2724 37.8309 18.0173L37.5517 18.539C37.9239 18.7709 38.2962 19.026 38.6684 19.3043C39.1105 19.6057 39.5409 19.9188 39.9597 20.2434L40.2738 19.6869ZM36.9584 17.5303C33.4685 15.4434 32.8752 15.6173 36.6443 17.9825L36.9584 17.5303Z" fill="#6F7176"/>
</g>
<defs>
<clipPath id="clip0_71_18">
<rect width="208" height="96" fill="white"/>
</clipPath>
</defs>
</svg>
